<?xml version="1.0" standalone="no"?>
<!DOCTYPE svg PUBLIC "-//W3C//DTD SVG 20010904//EN"
 "http://www.w3.org/TR/2001/REC-SVG-20010904/DTD/svg10.dtd">
<svg version="1.0" xmlns="http://www.w3.org/2000/svg"
 width="630.000000pt" height="630.000000pt" viewBox="0 0 630.000000 630.000000"
 preserveAspectRatio="xMidYMid meet">
<metadata>
Created by potrace 1.11, written by Peter Selinger 2001-2013
</metadata>
<g transform="translate(0.000000,630.000000) scale(0.100000,-0.100000)"
fill="#000000" stroke="none">
<path d="M945 5386 c-65 -31 -117 -86 -152 -161 l-28 -60 -3 -1772 -2 -1773
1865 0 1865 0 -2 1783 -3 1782 -28 60 c-34 72 -78 121 -132 146 -38 18 -104
19 -1685 19 l-1645 0 -50 -24z m2425 -313 c20 -29 25 -49 25 -98 0 -49 -5 -69
-25 -98 l-25 -37 -760 0 -761 0 -44 23 c-36 17 -49 32 -64 68 -18 45 -18 46 2
93 17 37 30 51 64 66 41 19 71 20 803 20 l760 0 25 -37z m621 -605 l24 -43 3
-472 3 -473 -1470 0 -1471 0 0 450 c0 491 1 498 57 538 16 11 44 25 63 30 22
7 529 11 1401 11 l1365 1 25 -42z"/>
<path d="M5066 5254 c-103 -25 -184 -72 -267 -154 -156 -154 -213 -356 -159
-564 28 -110 74 -190 155 -272 230 -231 600 -231 830 0 236 237 234 601 -4
836 -84 84 -164 129 -272 155 -79 18 -205 18 -283 -1z"/>
<path d="M5070 2830 l0 -1210 135 0 135 0 0 1210 0 1210 -135 0 -135 0 0
-1210z"/>
<path d="M1080 1256 c0 -267 1 -274 23 -306 46 -68 61 -73 245 -83 92 -4 223
-7 292 -5 141 4 176 17 217 77 21 31 22 41 23 312 l1 279 -56 0 c-30 0 -55 -4
-55 -10 0 -6 -40 -10 -100 -10 l-100 0 0 -265 0 -265 -173 0 c-156 0 -176 2
-190 18 -15 16 -17 50 -17 275 l0 257 -55 0 -55 0 0 -274z"/>
<path d="M2250 1200 l0 -330 332 0 c315 0 334 1 374 21 65 31 84 69 84 168 0
55 -5 92 -16 112 -14 28 -14 32 0 48 12 13 16 40 16 111 0 111 -19 151 -84
181 -37 17 -71 19 -373 19 l-333 0 0 -330z m674 198 c10 -13 16 -44 16 -75 0
-41 -4 -54 -19 -63 -12 -6 -118 -10 -275 -10 l-256 0 0 -50 0 -50 250 0 251 0
24 -25 c32 -31 34 -96 5 -125 -19 -19 -33 -20 -295 -20 l-275 0 0 220 0 220
279 0 c278 0 280 0 295 -22z"/>
<path d="M3420 1252 l0 -277 25 -37 c43 -63 73 -69 380 -71 256 -2 272 -1 305
19 19 11 45 35 57 54 23 32 23 39 23 311 l0 279 -50 0 c-27 0 -50 -4 -50 -10
0 -6 -42 -10 -105 -10 l-105 0 0 -265 0 -265 -170 0 c-157 0 -172 2 -190 20
-19 19 -20 33 -20 275 l0 255 -50 0 -50 0 0 -278z"/>
<path d="M4670 1508 c-67 -34 -93 -90 -87 -186 5 -81 20 -111 77 -149 32 -22
40 -23 299 -23 314 0 311 1 311 -84 0 -89 13 -86 -353 -86 l-317 0 0 -55 0
-56 339 3 c325 3 341 4 367 24 56 41 69 69 72 157 4 95 -13 137 -68 175 -32
21 -40 22 -297 22 -260 0 -295 4 -315 34 -13 20 -8 91 8 114 15 22 16 22 335
22 l319 0 0 55 0 55 -323 0 c-315 0 -324 -1 -367 -22z"/>
</g>
</svg>
